<?xml version="1.0" standalone="no"?><!DOCTYPE svg PUBLIC "-//W3C//DTD SVG 1.1//EN" "http://www.w3.org/Graphics/SVG/1.1/DTD/svg11.dtd"><svg width="100%" height="100%" viewBox="0 0 100 30" version="1.1" xmlns="http://www.w3.org/2000/svg" xmlns:xlink="http://www.w3.org/1999/xlink" xml:space="preserve" style="fill-rule:evenodd;clip-rule:evenodd;stroke-linejoin:round;stroke-miterlimit:1.41421;"><g><path d="M0.353,0.224l0,9.405l2.068,0l0,-3.03l1.186,-1.198l2.832,4.228l2.595,0l-4.031,-5.691l3.675,-3.714l-2.582,0l-3.675,3.899l0,-3.899l-2.068,0Z" style="fill:#fff;fill-rule:nonzero;"/><path d="M9.864,0.224l0,9.405l7.139,0l0,-1.739l-5.071,0l0,-2.305l4.557,0l0,-1.607l-4.557,0l0,-2.015l4.966,0l0,-1.739l-7.034,0Z" style="fill:#fff;fill-rule:nonzero;"/><path d="M18.399,0.224l0,9.405l6.652,0l0,-1.739l-4.584,0l0,-7.666l-2.068,0Z" style="fill:#fff;fill-rule:nonzero;"/><path d="M26.21,0.224l0,9.405l6.652,0l0,-1.739l-4.584,0l0,-7.666l-2.068,0Z" style="fill:#fff;fill-rule:nonzero;"/><path d="M34.996,5.967l0,3.662l2.068,0l0,-3.609l3.491,-5.796l-2.306,0l-2.186,3.714l-2.2,-3.714l-2.318,0l3.451,5.743Z" style="fill:#fff;fill-rule:nonzero;"/><path d="M54.312,9.629l2.529,-9.405l-2.029,0l-1.541,6.481l-0.026,0l-1.607,-6.481l-1.937,0l-1.633,6.402l-0.026,0l-1.489,-6.402l-2.068,0l2.49,9.405l2.094,0l1.568,-6.402l0.026,0l1.594,6.402l2.055,0Z" style="fill:#fff;fill-rule:nonzero;"/><rect x="56.696" y="7.6" width="2.068" height="2.028" style="fill:#fff;fill-rule:nonzero;"/><path d="M70.756,3.385l2.002,0c-0.061,-0.544 -0.211,-1.027 -0.448,-1.449c-0.237,-0.421 -0.538,-0.775 -0.902,-1.06c-0.365,-0.285 -0.777,-0.503 -1.238,-0.652c-0.461,-0.149 -0.951,-0.224 -1.469,-0.224c-0.72,0 -1.368,0.127 -1.943,0.382c-0.575,0.255 -1.06,0.606 -1.455,1.054c-0.396,0.448 -0.698,0.972 -0.909,1.574c-0.211,0.601 -0.316,1.253 -0.316,1.956c0,0.685 0.105,1.324 0.316,1.916c0.211,0.593 0.513,1.109 0.909,1.548c0.395,0.439 0.88,0.784 1.455,1.034c0.575,0.25 1.223,0.376 1.943,0.376c0.58,0 1.111,-0.088 1.594,-0.264c0.483,-0.176 0.904,-0.43 1.264,-0.764c0.36,-0.334 0.65,-0.738 0.87,-1.212c0.219,-0.474 0.355,-1.005 0.408,-1.594l-2.002,0c-0.079,0.633 -0.296,1.142 -0.652,1.528c-0.356,0.387 -0.85,0.58 -1.482,0.58c-0.465,0 -0.861,-0.09 -1.185,-0.27c-0.325,-0.18 -0.589,-0.419 -0.791,-0.718c-0.202,-0.298 -0.349,-0.634 -0.441,-1.008c-0.092,-0.373 -0.138,-0.757 -0.138,-1.152c0,-0.413 0.046,-0.812 0.138,-1.199c0.092,-0.386 0.239,-0.731 0.441,-1.034c0.202,-0.303 0.466,-0.544 0.791,-0.724c0.324,-0.18 0.72,-0.27 1.185,-0.27c0.255,0 0.498,0.041 0.731,0.125c0.233,0.083 0.441,0.2 0.626,0.349c0.184,0.149 0.338,0.323 0.461,0.52c0.123,0.198 0.202,0.415 0.237,0.652Z" style="fill:#fff;fill-rule:nonzero;"/><path d="M76.617,5.993l1.225,-3.451l0.027,0l1.185,3.451l-2.437,0ZM76.815,0.224l-3.556,9.405l2.081,0l0.737,-2.095l3.517,0l0.712,2.095l2.147,0l-3.517,-9.405l-2.121,0Z" style="fill:#fff;fill-rule:nonzero;"/><path d="M84.679,6.507l-2.002,0c-0.009,0.58 0.096,1.08 0.316,1.502c0.219,0.421 0.516,0.768 0.889,1.04c0.373,0.272 0.803,0.472 1.291,0.6c0.487,0.127 0.99,0.191 1.508,0.191c0.641,0 1.205,-0.075 1.692,-0.224c0.488,-0.15 0.896,-0.358 1.225,-0.626c0.33,-0.268 0.578,-0.586 0.745,-0.955c0.167,-0.369 0.25,-0.768 0.25,-1.199c0,-0.527 -0.112,-0.959 -0.336,-1.297c-0.224,-0.338 -0.489,-0.608 -0.797,-0.81c-0.307,-0.202 -0.617,-0.349 -0.928,-0.441c-0.312,-0.093 -0.556,-0.156 -0.732,-0.191c-0.588,-0.15 -1.064,-0.273 -1.429,-0.369c-0.364,-0.097 -0.65,-0.194 -0.856,-0.29c-0.206,-0.097 -0.345,-0.202 -0.415,-0.316c-0.07,-0.114 -0.105,-0.264 -0.105,-0.448c0,-0.202 0.044,-0.369 0.132,-0.501c0.087,-0.131 0.199,-0.241 0.335,-0.329c0.137,-0.088 0.288,-0.149 0.455,-0.184c0.167,-0.035 0.334,-0.053 0.5,-0.053c0.255,0 0.49,0.022 0.705,0.066c0.215,0.044 0.406,0.118 0.573,0.224c0.167,0.105 0.301,0.25 0.402,0.434c0.101,0.185 0.16,0.418 0.178,0.699l2.002,0c0,-0.545 -0.103,-1.008 -0.31,-1.39c-0.206,-0.382 -0.485,-0.696 -0.836,-0.942c-0.351,-0.246 -0.753,-0.424 -1.205,-0.533c-0.453,-0.11 -0.925,-0.165 -1.416,-0.165c-0.422,0 -0.843,0.057 -1.265,0.171c-0.421,0.114 -0.799,0.29 -1.133,0.527c-0.333,0.237 -0.603,0.534 -0.81,0.889c-0.206,0.356 -0.309,0.775 -0.309,1.258c0,0.43 0.081,0.797 0.243,1.1c0.163,0.303 0.376,0.555 0.639,0.757c0.264,0.202 0.562,0.367 0.896,0.494c0.334,0.128 0.676,0.235 1.027,0.323c0.343,0.097 0.681,0.184 1.015,0.264c0.333,0.079 0.632,0.171 0.895,0.276c0.264,0.106 0.477,0.237 0.639,0.395c0.163,0.158 0.244,0.365 0.244,0.619c0,0.237 -0.062,0.433 -0.185,0.587c-0.123,0.153 -0.276,0.274 -0.461,0.362c-0.184,0.088 -0.382,0.147 -0.592,0.178c-0.211,0.03 -0.409,0.046 -0.593,0.046c-0.272,0 -0.536,-0.033 -0.79,-0.099c-0.255,-0.066 -0.477,-0.167 -0.666,-0.303c-0.188,-0.136 -0.34,-0.314 -0.454,-0.534c-0.114,-0.219 -0.171,-0.487 -0.171,-0.803Z" style="fill:#fff;fill-rule:nonzero;"/><path d="M91.818,0.224l0,9.405l7.139,0l0,-1.739l-5.071,0l0,-2.305l4.558,0l0,-1.607l-4.558,0l0,-2.015l4.966,0l0,-1.739l-7.034,0Z" style="fill:#fff;fill-rule:nonzero;"/><path d="M1.264,16.193l0,-3.293l0.901,0c0.312,0 0.573,0.04 0.785,0.121c0.212,0.08 0.383,0.196 0.511,0.347c0.129,0.151 0.222,0.333 0.278,0.545c0.056,0.213 0.085,0.45 0.085,0.714c0,0.288 -0.041,0.532 -0.121,0.732c-0.081,0.2 -0.188,0.362 -0.322,0.486c-0.134,0.125 -0.287,0.214 -0.459,0.267c-0.172,0.054 -0.349,0.081 -0.531,0.081l-1.127,0ZM0,11.934l0,5.225l2.479,0c0.44,0 0.823,-0.067 1.147,-0.201c0.325,-0.135 0.596,-0.319 0.813,-0.553c0.218,-0.234 0.38,-0.512 0.487,-0.834c0.108,-0.322 0.161,-0.673 0.161,-1.054c0,-0.434 -0.065,-0.812 -0.197,-1.134c-0.131,-0.322 -0.314,-0.591 -0.547,-0.805c-0.234,-0.215 -0.51,-0.376 -0.829,-0.483c-0.32,-0.107 -0.664,-0.161 -1.035,-0.161l-2.479,0Z" style="fill:#fff;fill-rule:nonzero;"/><path d="M11.438,17.159l1.546,-5.225l-1.24,0l-0.941,3.6l-0.017,0l-0.982,-3.6l-1.183,0l-0.998,3.556l-0.016,0l-0.91,-3.556l-1.264,0l1.522,5.225l1.28,0l0.958,-3.557l0.016,0l0.974,3.557l1.255,0Z" style="fill:#fff;fill-rule:nonzero;"/><rect x="13.564" y="11.934" width="1.264" height="5.225" style="fill:#fff;fill-rule:nonzero;"/><path d="M21.356,16.639l0.466,0.52l1.401,0l-1.167,-1.237c0.161,-0.185 0.287,-0.388 0.378,-0.607c0.091,-0.22 0.15,-0.447 0.177,-0.681l-0.99,0c-0.016,0.107 -0.04,0.214 -0.072,0.318c-0.032,0.105 -0.078,0.207 -0.137,0.304l-0.741,-0.827c0.29,-0.141 0.533,-0.317 0.729,-0.527c0.196,-0.209 0.294,-0.468 0.294,-0.775c0,-0.205 -0.042,-0.386 -0.125,-0.542c-0.083,-0.156 -0.196,-0.286 -0.338,-0.391c-0.142,-0.105 -0.309,-0.185 -0.499,-0.238c-0.191,-0.054 -0.396,-0.081 -0.616,-0.081c-0.193,0 -0.38,0.028 -0.56,0.084c-0.179,0.057 -0.339,0.137 -0.478,0.242c-0.14,0.105 -0.251,0.23 -0.335,0.377c-0.083,0.146 -0.124,0.31 -0.124,0.49c0,0.229 0.052,0.429 0.157,0.6c0.104,0.171 0.234,0.342 0.39,0.512c-0.166,0.074 -0.327,0.159 -0.483,0.257c-0.156,0.097 -0.294,0.208 -0.414,0.333c-0.121,0.124 -0.216,0.263 -0.286,0.417c-0.07,0.153 -0.105,0.323 -0.105,0.508c0,0.249 0.048,0.47 0.145,0.662c0.097,0.193 0.228,0.357 0.394,0.491c0.167,0.134 0.364,0.235 0.592,0.303c0.228,0.069 0.471,0.103 0.729,0.103c0.327,0 0.621,-0.051 0.881,-0.154c0.26,-0.102 0.506,-0.256 0.737,-0.461ZM19.77,14.854l0.982,1.09c-0.134,0.137 -0.278,0.248 -0.431,0.333c-0.153,0.085 -0.331,0.128 -0.535,0.128c-0.107,0 -0.211,-0.018 -0.31,-0.055c-0.099,-0.036 -0.187,-0.085 -0.262,-0.146c-0.075,-0.061 -0.135,-0.134 -0.181,-0.22c-0.045,-0.085 -0.068,-0.174 -0.068,-0.267c0,-0.107 0.023,-0.205 0.068,-0.293c0.046,-0.087 0.106,-0.168 0.181,-0.241c0.075,-0.073 0.161,-0.137 0.258,-0.19c0.097,-0.054 0.196,-0.1 0.298,-0.139ZM20.695,13.068c0,0.19 -0.057,0.339 -0.173,0.447c-0.115,0.107 -0.253,0.207 -0.414,0.3c-0.107,-0.122 -0.209,-0.242 -0.306,-0.359c-0.097,-0.117 -0.145,-0.259 -0.145,-0.424c0,-0.137 0.051,-0.248 0.153,-0.333c0.102,-0.086 0.223,-0.128 0.362,-0.128c0.14,0 0.262,0.048 0.367,0.146c0.104,0.097 0.156,0.215 0.156,0.351Z" style="fill:#fff;fill-rule:nonzero;"/><path d="M29.759,13.69l1.224,0c-0.038,-0.302 -0.129,-0.571 -0.274,-0.805c-0.145,-0.234 -0.329,-0.43 -0.551,-0.589c-0.223,-0.158 -0.475,-0.279 -0.757,-0.362c-0.282,-0.083 -0.581,-0.125 -0.897,-0.125c-0.44,0 -0.836,0.071 -1.188,0.213c-0.351,0.141 -0.648,0.336 -0.889,0.585c-0.242,0.249 -0.427,0.54 -0.556,0.875c-0.128,0.334 -0.193,0.696 -0.193,1.086c0,0.381 0.065,0.736 0.193,1.065c0.129,0.329 0.314,0.616 0.556,0.86c0.241,0.244 0.538,0.435 0.889,0.574c0.352,0.139 0.748,0.209 1.188,0.209c0.354,0 0.678,-0.049 0.974,-0.146c0.295,-0.098 0.552,-0.24 0.772,-0.425c0.22,-0.185 0.397,-0.41 0.532,-0.673c0.134,-0.264 0.217,-0.559 0.249,-0.886l-1.223,0c-0.049,0.352 -0.182,0.635 -0.399,0.849c-0.217,0.215 -0.519,0.322 -0.905,0.322c-0.285,0 -0.526,-0.05 -0.725,-0.15c-0.198,-0.1 -0.359,-0.233 -0.483,-0.399c-0.123,-0.165 -0.213,-0.352 -0.27,-0.559c-0.056,-0.208 -0.084,-0.421 -0.084,-0.641c0,-0.229 0.028,-0.451 0.084,-0.666c0.057,-0.214 0.147,-0.406 0.27,-0.574c0.124,-0.168 0.285,-0.303 0.483,-0.403c0.199,-0.1 0.44,-0.15 0.725,-0.15c0.155,0 0.304,0.024 0.446,0.07c0.143,0.046 0.27,0.111 0.383,0.194c0.112,0.083 0.206,0.179 0.281,0.289c0.076,0.11 0.124,0.23 0.145,0.362Z" style="fill:#fff;fill-rule:nonzero;"/><path d="M33.156,14.298l0,-1.471l1.385,0c0.29,0 0.507,0.057 0.652,0.172c0.145,0.114 0.217,0.298 0.217,0.552c0,0.264 -0.072,0.454 -0.217,0.571c-0.145,0.117 -0.362,0.176 -0.652,0.176l-1.385,0ZM31.892,11.934l0,5.225l1.264,0l0,-2.042l1.264,0c0.317,0 0.545,0.064 0.684,0.19c0.14,0.127 0.231,0.327 0.274,0.6c0.032,0.21 0.056,0.43 0.072,0.659c0.016,0.229 0.059,0.427 0.129,0.593l1.264,0c-0.059,-0.073 -0.103,-0.162 -0.133,-0.267c-0.029,-0.105 -0.051,-0.216 -0.064,-0.333c-0.014,-0.117 -0.023,-0.232 -0.028,-0.344c-0.006,-0.112 -0.011,-0.21 -0.017,-0.293c-0.01,-0.132 -0.03,-0.263 -0.06,-0.395c-0.029,-0.132 -0.076,-0.253 -0.141,-0.362c-0.064,-0.11 -0.147,-0.205 -0.249,-0.286c-0.102,-0.08 -0.231,-0.14 -0.387,-0.179l0,-0.015c0.322,-0.117 0.554,-0.287 0.697,-0.512c0.142,-0.224 0.213,-0.49 0.213,-0.798c0,-0.2 -0.039,-0.386 -0.117,-0.559c-0.078,-0.174 -0.19,-0.326 -0.338,-0.458c-0.147,-0.131 -0.325,-0.235 -0.531,-0.311c-0.207,-0.075 -0.439,-0.113 -0.696,-0.113l-3.1,0Z" style="fill:#fff;fill-rule:nonzero;"/><rect x="37.704" y="11.934" width="1.264" height="5.225" style="fill:#fff;fill-rule:nonzero;"/><path d="M40.079,11.934l0,5.225l1.183,0l0,-3.666l0.016,0l1.409,3.666l0.974,0l1.409,-3.703l0.016,0l0,3.703l1.183,0l0,-5.225l-1.779,0l-1.272,3.593l-0.016,0l-1.344,-3.593l-1.779,0Z" style="fill:#fff;fill-rule:nonzero;"/><rect x="47.38" y="11.934" width="1.264" height="5.225" style="fill:#fff;fill-rule:nonzero;"/><path d="M49.754,11.934l0,5.225l1.184,0l0,-3.498l0.016,0l2.391,3.498l1.263,0l0,-5.225l-1.183,0l0,3.505l-0.016,0l-2.399,-3.505l-1.256,0Z" style="fill:#fff;fill-rule:nonzero;"/><path d="M57.168,15.139l0.749,-1.917l0.016,0l0.724,1.917l-1.489,0ZM57.289,11.934l-2.173,5.225l1.271,0l0.451,-1.164l2.149,0l0.435,1.164l1.312,0l-2.149,-5.225l-1.296,0Z" style="fill:#fff;fill-rule:nonzero;"/><path d="M61.233,11.934l0,5.225l4.065,0l0,-0.966l-2.801,0l0,-4.259l-1.264,0Z" style="fill:#fff;fill-rule:nonzero;"/><path d="M68.244,11.934l0,5.225l4.363,0l0,-0.966l-3.099,0l0,-1.281l2.785,0l0,-0.893l-2.785,0l0,-1.119l3.035,0l0,-0.966l-4.299,0Z" style="fill:#fff;fill-rule:nonzero;"/><path d="M74.869,14.422l-2.004,2.737l1.417,0l1.279,-1.808l1.256,1.808l1.505,0l-2.004,-2.73l1.843,-2.495l-1.384,0l-1.167,1.668l-1.127,-1.668l-1.465,0l1.851,2.488Z" style="fill:#fff;fill-rule:nonzero;"/><path d="M80.093,14.393l0,-1.566l0.982,0c0.145,0 0.285,0.009 0.419,0.029c0.134,0.019 0.252,0.057 0.354,0.113c0.102,0.056 0.184,0.136 0.246,0.238c0.061,0.103 0.092,0.237 0.092,0.403c0,0.166 -0.031,0.3 -0.092,0.402c-0.062,0.103 -0.144,0.182 -0.246,0.238c-0.102,0.056 -0.22,0.094 -0.354,0.113c-0.134,0.02 -0.274,0.03 -0.419,0.03l-0.982,0ZM78.83,11.934l0,5.225l1.263,0l0,-1.874l1.329,0c0.359,0 0.665,-0.047 0.917,-0.142c0.252,-0.095 0.458,-0.221 0.616,-0.377c0.158,-0.156 0.274,-0.336 0.346,-0.538c0.073,-0.202 0.109,-0.409 0.109,-0.618c0,-0.215 -0.036,-0.422 -0.109,-0.622c-0.072,-0.2 -0.188,-0.378 -0.346,-0.535c-0.158,-0.156 -0.364,-0.281 -0.616,-0.376c-0.252,-0.096 -0.558,-0.143 -0.917,-0.143l-2.592,0Z" style="fill:#fff;fill-rule:nonzero;"/><path d="M84.199,11.934l0,5.225l4.363,0l0,-0.966l-3.1,0l0,-1.281l2.786,0l0,-0.893l-2.786,0l0,-1.119l3.035,0l0,-0.966l-4.298,0Z" style="fill:#fff;fill-rule:nonzero;"/><path d="M90.679,14.298l0,-1.471l1.384,0c0.29,0 0.507,0.057 0.652,0.172c0.145,0.114 0.217,0.298 0.217,0.552c0,0.264 -0.072,0.454 -0.217,0.571c-0.145,0.117 -0.362,0.176 -0.652,0.176l-1.384,0ZM89.415,11.934l0,5.225l1.264,0l0,-2.042l1.263,0c0.317,0 0.545,0.064 0.685,0.19c0.139,0.127 0.23,0.327 0.273,0.6c0.032,0.21 0.057,0.43 0.073,0.659c0.016,0.229 0.059,0.427 0.129,0.593l1.263,0c-0.059,-0.073 -0.103,-0.162 -0.133,-0.267c-0.029,-0.105 -0.051,-0.216 -0.064,-0.333c-0.013,-0.117 -0.023,-0.232 -0.028,-0.344c-0.005,-0.112 -0.011,-0.21 -0.016,-0.293c-0.011,-0.132 -0.031,-0.263 -0.061,-0.395c-0.029,-0.132 -0.076,-0.253 -0.14,-0.362c-0.065,-0.11 -0.148,-0.205 -0.25,-0.286c-0.102,-0.08 -0.231,-0.14 -0.386,-0.179l0,-0.015c0.322,-0.117 0.554,-0.287 0.696,-0.512c0.142,-0.224 0.213,-0.49 0.213,-0.798c0,-0.2 -0.039,-0.386 -0.116,-0.559c-0.078,-0.174 -0.191,-0.326 -0.339,-0.458c-0.147,-0.131 -0.324,-0.235 -0.531,-0.311c-0.206,-0.075 -0.439,-0.113 -0.696,-0.113l-3.099,0Z" style="fill:#fff;fill-rule:nonzero;"/><path d="M96.354,12.9l0,4.259l1.263,0l0,-4.259l1.723,0l0,-0.966l-4.709,0l0,0.966l1.723,0Z" style="fill:#fff;fill-rule:nonzero;"/></g><g><path d="M15.497,20.734l0,-0.873l0.685,0c0.065,0 0.128,0.006 0.188,0.019c0.061,0.012 0.114,0.034 0.161,0.065c0.046,0.031 0.084,0.075 0.112,0.131c0.027,0.055 0.041,0.127 0.041,0.214c0,0.157 -0.041,0.27 -0.125,0.339c-0.084,0.07 -0.191,0.105 -0.322,0.105l-0.74,0ZM14.766,19.224l0,3.73l1.611,0c0.149,0 0.294,-0.02 0.435,-0.062c0.142,-0.042 0.267,-0.106 0.378,-0.194c0.11,-0.087 0.198,-0.199 0.263,-0.337c0.065,-0.137 0.098,-0.3 0.098,-0.488c0,-0.233 -0.051,-0.433 -0.152,-0.598c-0.101,-0.166 -0.254,-0.282 -0.458,-0.348c0.149,-0.08 0.261,-0.183 0.337,-0.308c0.076,-0.125 0.114,-0.282 0.114,-0.47c0,-0.174 -0.025,-0.321 -0.077,-0.439c-0.051,-0.119 -0.123,-0.214 -0.216,-0.285c-0.093,-0.071 -0.205,-0.123 -0.335,-0.154c-0.131,-0.031 -0.275,-0.047 -0.433,-0.047l-1.565,0ZM15.497,22.317l0,-1.024l0.796,0c0.159,0 0.286,0.041 0.382,0.123c0.096,0.082 0.144,0.218 0.144,0.41c0,0.097 -0.014,0.178 -0.044,0.24c-0.029,0.063 -0.069,0.113 -0.119,0.149c-0.049,0.037 -0.107,0.063 -0.172,0.079c-0.065,0.015 -0.133,0.023 -0.205,0.023l-0.782,0Z" style="fill:#fff;fill-rule:nonzero;"/><path d="M18.631,21.105c0,-0.164 0.016,-0.322 0.049,-0.476c0.032,-0.153 0.084,-0.29 0.156,-0.41c0.071,-0.12 0.164,-0.216 0.279,-0.287c0.115,-0.072 0.255,-0.107 0.419,-0.107c0.165,0 0.305,0.035 0.419,0.107c0.115,0.071 0.208,0.167 0.28,0.287c0.071,0.12 0.123,0.257 0.156,0.41c0.032,0.154 0.049,0.312 0.049,0.476c0,0.157 -0.017,0.309 -0.049,0.457c-0.033,0.148 -0.085,0.281 -0.156,0.4c-0.072,0.118 -0.165,0.213 -0.28,0.285c-0.114,0.071 -0.254,0.107 -0.419,0.107c-0.164,0 -0.304,-0.036 -0.419,-0.107c-0.115,-0.072 -0.208,-0.167 -0.279,-0.285c-0.072,-0.119 -0.124,-0.252 -0.156,-0.4c-0.033,-0.148 -0.049,-0.3 -0.049,-0.457ZM17.9,21.105c0,0.272 0.037,0.525 0.112,0.76c0.074,0.235 0.181,0.44 0.321,0.614c0.14,0.174 0.311,0.311 0.514,0.41c0.204,0.099 0.433,0.149 0.687,0.149c0.258,0 0.488,-0.05 0.689,-0.149c0.202,-0.099 0.373,-0.236 0.513,-0.41c0.139,-0.174 0.247,-0.379 0.321,-0.614c0.075,-0.235 0.112,-0.488 0.112,-0.76c0,-0.279 -0.037,-0.537 -0.112,-0.776c-0.074,-0.239 -0.182,-0.447 -0.321,-0.624c-0.14,-0.178 -0.311,-0.317 -0.513,-0.418c-0.201,-0.101 -0.431,-0.152 -0.689,-0.152c-0.254,0 -0.483,0.051 -0.687,0.152c-0.203,0.101 -0.374,0.24 -0.514,0.418c-0.14,0.177 -0.247,0.385 -0.321,0.624c-0.075,0.239 -0.112,0.497 -0.112,0.776Z" style="fill:#fff;fill-rule:nonzero;"/><path d="M22.505,21.512l0.433,-1.368l0.01,0l0.419,1.368l-0.862,0ZM22.575,19.224l-1.257,3.73l0.736,0l0.26,-0.83l1.244,0l0.251,0.83l0.759,0l-1.243,-3.73l-0.75,0Z" style="fill:#fff;fill-rule:nonzero;"/><path d="M25.588,20.912l0,-1.051l0.801,0c0.168,0 0.293,0.041 0.377,0.123c0.084,0.082 0.126,0.213 0.126,0.395c0,0.188 -0.042,0.324 -0.126,0.407c-0.084,0.084 -0.209,0.126 -0.377,0.126l-0.801,0ZM24.857,19.224l0,3.73l0.731,0l0,-1.457l0.731,0c0.183,0 0.315,0.045 0.396,0.136c0.081,0.09 0.133,0.233 0.158,0.428c0.019,0.15 0.033,0.307 0.042,0.47c0.009,0.164 0.034,0.305 0.075,0.423l0.731,0c-0.034,-0.052 -0.06,-0.115 -0.077,-0.19c-0.017,-0.075 -0.03,-0.154 -0.037,-0.238c-0.008,-0.084 -0.014,-0.165 -0.017,-0.246c-0.003,-0.08 -0.006,-0.149 -0.009,-0.209c-0.006,-0.094 -0.018,-0.188 -0.035,-0.282c-0.017,-0.094 -0.044,-0.18 -0.081,-0.258c-0.038,-0.079 -0.086,-0.147 -0.145,-0.204c-0.059,-0.058 -0.133,-0.1 -0.223,-0.128l0,-0.011c0.186,-0.083 0.32,-0.205 0.402,-0.365c0.083,-0.16 0.124,-0.35 0.124,-0.57c0,-0.143 -0.023,-0.276 -0.068,-0.399c-0.045,-0.124 -0.11,-0.233 -0.195,-0.327c-0.086,-0.094 -0.188,-0.168 -0.308,-0.222c-0.119,-0.054 -0.253,-0.081 -0.402,-0.081l-1.793,0Z" style="fill:#fff;fill-rule:nonzero;"/><path d="M28.95,22.265l0,-2.351l0.522,0c0.18,0 0.331,0.028 0.454,0.086c0.122,0.057 0.221,0.14 0.295,0.248c0.075,0.108 0.128,0.238 0.161,0.389c0.033,0.152 0.049,0.322 0.049,0.51c0,0.205 -0.023,0.379 -0.07,0.522c-0.047,0.143 -0.109,0.259 -0.186,0.348c-0.078,0.088 -0.166,0.152 -0.266,0.19c-0.099,0.039 -0.201,0.058 -0.307,0.058l-0.652,0ZM28.219,19.224l0,3.73l1.434,0c0.255,0 0.476,-0.047 0.664,-0.143c0.188,-0.096 0.344,-0.227 0.47,-0.395c0.126,-0.167 0.22,-0.365 0.282,-0.595c0.062,-0.23 0.093,-0.481 0.093,-0.753c0,-0.31 -0.038,-0.58 -0.114,-0.81c-0.076,-0.229 -0.182,-0.421 -0.317,-0.574c-0.135,-0.154 -0.295,-0.268 -0.479,-0.345c-0.185,-0.077 -0.385,-0.115 -0.599,-0.115l-1.434,0Z" style="fill:#fff;fill-rule:nonzero;"/><path d="M35.181,20.478l0.707,0c-0.021,-0.216 -0.074,-0.408 -0.158,-0.575c-0.084,-0.167 -0.19,-0.307 -0.319,-0.42c-0.129,-0.114 -0.275,-0.2 -0.438,-0.259c-0.163,-0.059 -0.336,-0.089 -0.519,-0.089c-0.254,0 -0.483,0.051 -0.687,0.152c-0.203,0.101 -0.375,0.24 -0.514,0.418c-0.14,0.177 -0.247,0.385 -0.322,0.624c-0.074,0.239 -0.111,0.497 -0.111,0.776c0,0.272 0.037,0.525 0.111,0.76c0.075,0.235 0.182,0.44 0.322,0.614c0.139,0.174 0.311,0.311 0.514,0.41c0.204,0.099 0.433,0.149 0.687,0.149c0.205,0 0.393,-0.035 0.564,-0.104c0.17,-0.07 0.319,-0.171 0.447,-0.303c0.127,-0.133 0.229,-0.293 0.307,-0.481c0.078,-0.188 0.126,-0.399 0.144,-0.632l-0.707,0c-0.028,0.25 -0.105,0.452 -0.231,0.606c-0.126,0.153 -0.3,0.23 -0.524,0.23c-0.164,0 -0.304,-0.036 -0.419,-0.107c-0.115,-0.072 -0.208,-0.167 -0.279,-0.285c-0.072,-0.119 -0.124,-0.252 -0.156,-0.4c-0.033,-0.148 -0.049,-0.3 -0.049,-0.457c0,-0.164 0.016,-0.322 0.049,-0.476c0.032,-0.153 0.084,-0.29 0.156,-0.41c0.071,-0.12 0.164,-0.216 0.279,-0.287c0.115,-0.072 0.255,-0.107 0.419,-0.107c0.09,0 0.176,0.016 0.259,0.049c0.082,0.034 0.156,0.08 0.221,0.139c0.065,0.059 0.119,0.128 0.163,0.206c0.043,0.079 0.071,0.165 0.084,0.259Z" style="fill:#fff;fill-rule:nonzero;"/><path d="M36.415,19.224l0,3.73l2.524,0l0,-0.689l-1.793,0l0,-0.915l1.611,0l0,-0.637l-1.611,0l0,-0.799l1.755,0l0,-0.69l-2.486,0Z" style="fill:#fff;fill-rule:nonzero;"/><path d="M40.163,20.912l0,-1.051l0.801,0c0.168,0 0.294,0.041 0.377,0.123c0.084,0.082 0.126,0.213 0.126,0.395c0,0.188 -0.042,0.324 -0.126,0.407c-0.083,0.084 -0.209,0.126 -0.377,0.126l-0.801,0ZM39.432,19.224l0,3.73l0.731,0l0,-1.457l0.731,0c0.184,0 0.315,0.045 0.396,0.136c0.081,0.09 0.134,0.233 0.158,0.428c0.019,0.15 0.033,0.307 0.042,0.47c0.01,0.164 0.035,0.305 0.075,0.423l0.731,0c-0.034,-0.052 -0.06,-0.115 -0.077,-0.19c-0.017,-0.075 -0.029,-0.154 -0.037,-0.238c-0.008,-0.084 -0.013,-0.165 -0.016,-0.246c-0.003,-0.08 -0.007,-0.149 -0.01,-0.209c-0.006,-0.094 -0.018,-0.188 -0.035,-0.282c-0.017,-0.094 -0.044,-0.18 -0.081,-0.258c-0.037,-0.079 -0.085,-0.147 -0.144,-0.204c-0.059,-0.058 -0.134,-0.1 -0.224,-0.128l0,-0.011c0.186,-0.083 0.321,-0.205 0.403,-0.365c0.082,-0.16 0.123,-0.35 0.123,-0.57c0,-0.143 -0.022,-0.276 -0.067,-0.399c-0.045,-0.124 -0.111,-0.233 -0.196,-0.327c-0.085,-0.094 -0.188,-0.168 -0.307,-0.222c-0.12,-0.054 -0.254,-0.081 -0.403,-0.081l-1.793,0Z" style="fill:#fff;fill-rule:nonzero;"/><path d="M43.446,19.914l0,3.04l0.731,0l0,-3.04l0.997,0l0,-0.69l-2.724,0l0,0.69l0.996,0Z" style="fill:#fff;fill-rule:nonzero;"/><rect x="45.556" y="19.224" width="0.731" height="3.731" style="fill:#fff;fill-rule:nonzero;"/><path d="M46.929,19.224l0,3.73l0.731,0l0,-1.541l1.393,0l0,-0.637l-1.393,0l0,-0.862l1.607,0l0,-0.69l-2.338,0Z" style="fill:#fff;fill-rule:nonzero;"/><rect x="49.691" y="19.224" width="0.731" height="3.731" style="fill:#fff;fill-rule:nonzero;"/><path d="M51.064,19.224l0,3.73l2.524,0l0,-0.689l-1.792,0l0,-0.915l1.611,0l0,-0.637l-1.611,0l0,-0.799l1.755,0l0,-0.69l-2.487,0Z" style="fill:#fff;fill-rule:nonzero;"/><path d="M54.813,22.265l0,-2.351l0.522,0c0.18,0 0.331,0.028 0.454,0.086c0.122,0.057 0.221,0.14 0.295,0.248c0.075,0.108 0.128,0.238 0.161,0.389c0.033,0.152 0.049,0.322 0.049,0.51c0,0.205 -0.023,0.379 -0.07,0.522c-0.047,0.143 -0.109,0.259 -0.186,0.348c-0.078,0.088 -0.166,0.152 -0.266,0.19c-0.099,0.039 -0.201,0.058 -0.307,0.058l-0.652,0ZM54.082,19.224l0,3.73l1.434,0c0.255,0 0.476,-0.047 0.664,-0.143c0.188,-0.096 0.344,-0.227 0.47,-0.395c0.126,-0.167 0.22,-0.365 0.282,-0.595c0.062,-0.23 0.093,-0.481 0.093,-0.753c0,-0.31 -0.038,-0.58 -0.114,-0.81c-0.076,-0.229 -0.182,-0.421 -0.317,-0.574c-0.135,-0.154 -0.295,-0.268 -0.479,-0.345c-0.185,-0.077 -0.385,-0.115 -0.599,-0.115l-1.434,0Z" style="fill:#fff;fill-rule:nonzero;"/><rect x="58.827" y="19.224" width="0.731" height="3.731" style="fill:#fff;fill-rule:nonzero;"/><path d="M60.201,19.224l0,3.73l0.684,0l0,-2.497l0.01,0l1.383,2.497l0.731,0l0,-3.73l-0.685,0l0,2.503l-0.009,0l-1.388,-2.503l-0.726,0Z" style="fill:#fff;fill-rule:nonzero;"/><path d="M67.162,20.478l0.708,0c-0.021,-0.216 -0.074,-0.408 -0.158,-0.575c-0.084,-0.167 -0.19,-0.307 -0.319,-0.42c-0.129,-0.114 -0.275,-0.2 -0.438,-0.259c-0.163,-0.059 -0.336,-0.089 -0.519,-0.089c-0.255,0 -0.483,0.051 -0.687,0.152c-0.203,0.101 -0.375,0.24 -0.514,0.418c-0.14,0.177 -0.247,0.385 -0.322,0.624c-0.074,0.239 -0.111,0.497 -0.111,0.776c0,0.272 0.037,0.525 0.111,0.76c0.075,0.235 0.182,0.44 0.322,0.614c0.139,0.174 0.311,0.311 0.514,0.41c0.204,0.099 0.432,0.149 0.687,0.149c0.205,0 0.393,-0.035 0.564,-0.104c0.17,-0.07 0.319,-0.171 0.447,-0.303c0.127,-0.133 0.229,-0.293 0.307,-0.481c0.077,-0.188 0.126,-0.399 0.144,-0.632l-0.708,0c-0.028,0.25 -0.104,0.452 -0.23,0.606c-0.126,0.153 -0.3,0.23 -0.524,0.23c-0.164,0 -0.304,-0.036 -0.419,-0.107c-0.115,-0.072 -0.208,-0.167 -0.279,-0.285c-0.072,-0.119 -0.124,-0.252 -0.156,-0.4c-0.033,-0.148 -0.049,-0.3 -0.049,-0.457c0,-0.164 0.016,-0.322 0.049,-0.476c0.032,-0.153 0.084,-0.29 0.156,-0.41c0.071,-0.12 0.164,-0.216 0.279,-0.287c0.115,-0.072 0.255,-0.107 0.419,-0.107c0.09,0 0.176,0.016 0.259,0.049c0.082,0.034 0.155,0.08 0.221,0.139c0.065,0.059 0.119,0.128 0.163,0.206c0.043,0.079 0.071,0.165 0.083,0.259Z" style="fill:#fff;fill-rule:nonzero;"/><path d="M69.128,20.912l0,-1.051l0.801,0c0.167,0 0.293,0.041 0.377,0.123c0.084,0.082 0.125,0.213 0.125,0.395c0,0.188 -0.041,0.324 -0.125,0.407c-0.084,0.084 -0.21,0.126 -0.377,0.126l-0.801,0ZM68.397,19.224l0,3.73l0.731,0l0,-1.457l0.731,0c0.183,0 0.315,0.045 0.396,0.136c0.08,0.09 0.133,0.233 0.158,0.428c0.018,0.15 0.032,0.307 0.042,0.47c0.009,0.164 0.034,0.305 0.074,0.423l0.731,0c-0.034,-0.052 -0.059,-0.115 -0.076,-0.19c-0.018,-0.075 -0.03,-0.154 -0.038,-0.238c-0.008,-0.084 -0.013,-0.165 -0.016,-0.246c-0.003,-0.08 -0.006,-0.149 -0.009,-0.209c-0.007,-0.094 -0.018,-0.188 -0.035,-0.282c-0.017,-0.094 -0.045,-0.18 -0.082,-0.258c-0.037,-0.079 -0.085,-0.147 -0.144,-0.204c-0.059,-0.058 -0.134,-0.1 -0.224,-0.128l0,-0.011c0.187,-0.083 0.321,-0.205 0.403,-0.365c0.082,-0.16 0.124,-0.35 0.124,-0.57c0,-0.143 -0.023,-0.276 -0.068,-0.399c-0.045,-0.124 -0.11,-0.233 -0.196,-0.327c-0.085,-0.094 -0.187,-0.168 -0.307,-0.222c-0.119,-0.054 -0.254,-0.081 -0.403,-0.081l-1.792,0Z" style="fill:#fff;fill-rule:nonzero;"/><rect x="71.759" y="19.224" width="0.731" height="3.731" style="fill:#fff;fill-rule:nonzero;"/><path d="M73.132,19.224l0,3.73l0.685,0l0,-2.617l0.009,0l0.815,2.617l0.564,0l0.814,-2.643l0.01,0l0,2.643l0.684,0l0,-3.73l-1.029,0l-0.736,2.565l-0.009,0l-0.778,-2.565l-1.029,0Z" style="fill:#fff;fill-rule:nonzero;"/><rect x="77.356" y="19.224" width="0.731" height="3.731" style="fill:#fff;fill-rule:nonzero;"/><path d="M78.73,19.224l0,3.73l0.684,0l0,-2.497l0.009,0l1.383,2.497l0.732,0l0,-3.73l-0.685,0l0,2.503l-0.009,0l-1.388,-2.503l-0.726,0Z" style="fill:#fff;fill-rule:nonzero;"/><path d="M83.018,21.512l0.433,-1.368l0.01,0l0.419,1.368l-0.862,0ZM83.088,19.224l-1.257,3.73l0.736,0l0.26,-0.83l1.244,0l0.251,0.83l0.759,0l-1.243,-3.73l-0.75,0Z" style="fill:#fff;fill-rule:nonzero;"/><path d="M85.37,19.224l0,3.73l2.352,0l0,-0.689l-1.621,0l0,-3.041l-0.731,0Z" style="fill:#fff;fill-rule:nonzero;"/><path d="M89.426,19.224l0,3.73l2.352,0l0,-0.689l-1.621,0l0,-3.041l-0.731,0Z" style="fill:#fff;fill-rule:nonzero;"/><path d="M93.026,21.512l0.433,-1.368l0.009,0l0.419,1.368l-0.861,0ZM93.095,19.224l-1.257,3.73l0.736,0l0.261,-0.83l1.243,0l0.251,0.83l0.759,0l-1.243,-3.73l-0.75,0Z" style="fill:#fff;fill-rule:nonzero;"/><path d="M98.432,22.954l0.894,-3.73l-0.717,0l-0.545,2.571l-0.009,0l-0.568,-2.571l-0.685,0l-0.577,2.539l-0.01,0l-0.526,-2.539l-0.731,0l0.88,3.73l0.741,0l0.554,-2.539l0.009,0l0.563,2.539l0.727,0Z" style="fill:#fff;fill-rule:nonzero;"/><path d="M15.39,25.979l0,2.803l0.375,0l0,-2.803l0.937,0l0,-0.353l-2.25,0l0,0.353l0.938,0Z" style="fill:#fff;fill-rule:nonzero;"/><path d="M17.014,25.626l0,3.156l1.954,0l0,-0.353l-1.58,0l0,-1.092l1.462,0l0,-0.354l-1.462,0l0,-1.004l1.568,0l0,-0.353l-1.942,0Z" style="fill:#fff;fill-rule:nonzero;"/><path d="M20.091,27.16l-0.977,1.622l0.417,0l0.781,-1.304l0.756,1.304l0.457,0l-0.989,-1.622l0.93,-1.534l-0.418,0l-0.732,1.233l-0.702,-1.233l-0.449,0l0.926,1.534Z" style="fill:#fff;fill-rule:nonzero;"/><path d="M22.313,27.478l0.477,-1.472l0.008,0l0.469,1.472l-0.954,0ZM22.593,25.626l-1.095,3.156l0.382,0l0.315,-0.95l1.19,0l0.307,0.95l0.414,0l-1.099,-3.156l-0.414,0Z" style="fill:#fff;fill-rule:nonzero;"/><path d="M26.009,26.55l0.355,0c-0.005,-0.174 -0.035,-0.324 -0.089,-0.449c-0.054,-0.125 -0.127,-0.229 -0.221,-0.312c-0.093,-0.082 -0.201,-0.143 -0.325,-0.181c-0.123,-0.038 -0.257,-0.058 -0.401,-0.058c-0.129,0 -0.255,0.019 -0.377,0.056c-0.122,0.037 -0.231,0.093 -0.327,0.168c-0.096,0.075 -0.173,0.171 -0.23,0.287c-0.058,0.117 -0.087,0.254 -0.087,0.413c0,0.145 0.026,0.265 0.077,0.361c0.051,0.096 0.119,0.174 0.205,0.234c0.085,0.061 0.182,0.109 0.289,0.146c0.108,0.037 0.218,0.069 0.329,0.097c0.112,0.028 0.222,0.056 0.329,0.082c0.108,0.027 0.205,0.061 0.29,0.104c0.085,0.043 0.154,0.098 0.205,0.166c0.051,0.068 0.077,0.156 0.077,0.265c0,0.115 -0.021,0.209 -0.063,0.283c-0.042,0.074 -0.098,0.132 -0.166,0.175c-0.068,0.042 -0.145,0.073 -0.23,0.09c-0.086,0.018 -0.17,0.027 -0.254,0.027c-0.106,0 -0.208,-0.015 -0.308,-0.044c-0.1,-0.03 -0.187,-0.076 -0.262,-0.138c-0.075,-0.061 -0.135,-0.14 -0.181,-0.236c-0.046,-0.096 -0.069,-0.21 -0.069,-0.343l-0.355,0c0,0.192 0.031,0.358 0.093,0.498c0.062,0.14 0.146,0.255 0.252,0.345c0.106,0.089 0.23,0.156 0.37,0.201c0.141,0.044 0.29,0.066 0.448,0.066c0.128,0 0.258,-0.017 0.388,-0.051c0.13,-0.034 0.247,-0.088 0.352,-0.163c0.106,-0.076 0.192,-0.173 0.259,-0.292c0.067,-0.12 0.1,-0.263 0.1,-0.431c0,-0.156 -0.026,-0.286 -0.077,-0.389c-0.051,-0.103 -0.119,-0.189 -0.205,-0.257c-0.085,-0.068 -0.182,-0.121 -0.289,-0.161c-0.108,-0.04 -0.218,-0.075 -0.329,-0.104c-0.112,-0.029 -0.222,-0.057 -0.329,-0.082c-0.108,-0.025 -0.205,-0.057 -0.29,-0.095c-0.085,-0.038 -0.154,-0.088 -0.205,-0.148c-0.051,-0.06 -0.077,-0.139 -0.077,-0.236c0,-0.104 0.018,-0.19 0.054,-0.259c0.035,-0.069 0.082,-0.125 0.141,-0.166c0.059,-0.041 0.127,-0.071 0.203,-0.088c0.076,-0.018 0.154,-0.027 0.233,-0.027c0.194,0 0.354,0.051 0.479,0.153c0.124,0.101 0.197,0.266 0.218,0.493Z" style="fill:#fff;fill-rule:nonzero;"/><path d="M29.944,26.983l0,-1.004l0.749,0c0.081,0 0.158,0.005 0.23,0.016c0.073,0.01 0.136,0.033 0.191,0.068c0.056,0.036 0.099,0.086 0.131,0.151c0.031,0.064 0.047,0.153 0.047,0.265c0,0.168 -0.047,0.294 -0.14,0.378c-0.093,0.084 -0.246,0.126 -0.459,0.126l-0.749,0ZM29.57,25.626l0,3.156l1.359,0c0.14,0 0.262,-0.026 0.369,-0.077c0.106,-0.052 0.195,-0.119 0.268,-0.203c0.072,-0.084 0.126,-0.181 0.163,-0.29c0.037,-0.109 0.055,-0.221 0.055,-0.336c0,-0.195 -0.046,-0.36 -0.138,-0.495c-0.092,-0.136 -0.224,-0.224 -0.398,-0.265l0,-0.009c0.134,-0.059 0.238,-0.15 0.31,-0.272c0.072,-0.123 0.108,-0.268 0.108,-0.436c0,-0.159 -0.032,-0.293 -0.096,-0.402c-0.065,-0.109 -0.143,-0.195 -0.235,-0.256c-0.042,-0.03 -0.092,-0.052 -0.152,-0.067c-0.059,-0.014 -0.122,-0.026 -0.191,-0.033c-0.068,-0.007 -0.137,-0.012 -0.207,-0.013c-0.069,-0.002 -0.134,-0.002 -0.195,-0.002l-1.02,0ZM29.944,28.429l0,-1.092l0.855,0c0.079,0 0.155,0.008 0.229,0.024c0.073,0.016 0.138,0.044 0.195,0.084c0.056,0.04 0.102,0.093 0.136,0.161c0.034,0.068 0.051,0.154 0.051,0.257c0,0.177 -0.047,0.315 -0.14,0.415c-0.093,0.1 -0.223,0.151 -0.388,0.151l-0.938,0Z" style="fill:#fff;fill-rule:nonzero;"/><path d="M32.486,27.204c0,-0.159 0.018,-0.316 0.055,-0.471c0.037,-0.155 0.094,-0.294 0.173,-0.418c0.079,-0.123 0.18,-0.223 0.304,-0.298c0.123,-0.075 0.27,-0.113 0.441,-0.113c0.171,0 0.318,0.038 0.441,0.113c0.124,0.075 0.225,0.175 0.304,0.298c0.078,0.124 0.136,0.263 0.173,0.418c0.037,0.155 0.055,0.312 0.055,0.471c0,0.159 -0.018,0.316 -0.055,0.471c-0.037,0.155 -0.095,0.294 -0.173,0.418c-0.079,0.123 -0.18,0.223 -0.304,0.298c-0.123,0.075 -0.27,0.113 -0.441,0.113c-0.171,0 -0.318,-0.038 -0.441,-0.113c-0.124,-0.075 -0.225,-0.175 -0.304,-0.298c-0.079,-0.124 -0.136,-0.263 -0.173,-0.418c-0.037,-0.155 -0.055,-0.312 -0.055,-0.471ZM32.111,27.204c0,0.215 0.029,0.422 0.085,0.621c0.057,0.199 0.141,0.375 0.254,0.528c0.113,0.154 0.254,0.275 0.422,0.365c0.168,0.09 0.364,0.135 0.587,0.135c0.223,0 0.419,-0.045 0.587,-0.135c0.168,-0.09 0.309,-0.211 0.422,-0.365c0.113,-0.153 0.197,-0.329 0.254,-0.528c0.056,-0.199 0.084,-0.406 0.084,-0.621c0,-0.215 -0.028,-0.422 -0.084,-0.621c-0.057,-0.199 -0.141,-0.375 -0.254,-0.529c-0.113,-0.153 -0.254,-0.275 -0.422,-0.366c-0.168,-0.092 -0.364,-0.138 -0.587,-0.138c-0.223,0 -0.419,0.046 -0.587,0.138c-0.168,0.091 -0.309,0.213 -0.422,0.366c-0.113,0.154 -0.197,0.33 -0.254,0.529c-0.056,0.199 -0.085,0.406 -0.085,0.621Z" style="fill:#fff;fill-rule:nonzero;"/><path d="M35.748,27.478l0.477,-1.472l0.008,0l0.469,1.472l-0.954,0ZM36.028,25.626l-1.095,3.156l0.382,0l0.315,-0.95l1.19,0l0.307,0.95l0.414,0l-1.099,-3.156l-0.414,0Z" style="fill:#fff;fill-rule:nonzero;"/><path d="M37.817,25.626l0,3.156l0.374,0l0,-1.348l0.914,0c0.092,0 0.166,0.015 0.221,0.046c0.055,0.031 0.1,0.072 0.134,0.124c0.034,0.052 0.059,0.112 0.075,0.181c0.016,0.07 0.029,0.143 0.039,0.219c0.013,0.077 0.021,0.155 0.024,0.234c0.002,0.08 0.005,0.154 0.008,0.224c0.002,0.069 0.008,0.132 0.017,0.188c0.01,0.056 0.027,0.1 0.054,0.132l0.417,0c-0.039,-0.053 -0.069,-0.114 -0.088,-0.183c-0.02,-0.069 -0.035,-0.142 -0.046,-0.219c-0.01,-0.077 -0.017,-0.155 -0.019,-0.234c-0.003,-0.08 -0.007,-0.158 -0.012,-0.235c-0.008,-0.076 -0.019,-0.15 -0.034,-0.221c-0.014,-0.07 -0.036,-0.135 -0.067,-0.192c-0.03,-0.058 -0.071,-0.107 -0.122,-0.148c-0.051,-0.041 -0.117,-0.071 -0.199,-0.089l0,-0.008c0.171,-0.053 0.295,-0.152 0.373,-0.297c0.077,-0.144 0.116,-0.312 0.116,-0.504c0,-0.256 -0.076,-0.458 -0.227,-0.605c-0.151,-0.148 -0.36,-0.221 -0.628,-0.221l-1.324,0ZM38.971,27.08l-0.78,0l0,-1.101l0.93,0c0.176,0 0.303,0.05 0.382,0.151c0.079,0.1 0.118,0.23 0.118,0.389c0,0.115 -0.017,0.208 -0.053,0.28c-0.035,0.073 -0.082,0.13 -0.142,0.173c-0.059,0.043 -0.128,0.071 -0.206,0.086c-0.079,0.015 -0.162,0.022 -0.249,0.022Z" style="fill:#fff;fill-rule:nonzero;"/><path d="M40.89,28.429l0,-2.45l0.631,0c0.173,0 0.319,0.028 0.437,0.082c0.118,0.055 0.215,0.134 0.29,0.239c0.074,0.104 0.128,0.231 0.161,0.38c0.033,0.149 0.049,0.318 0.049,0.506c0,0.195 -0.017,0.361 -0.053,0.498c-0.035,0.137 -0.081,0.251 -0.136,0.342c-0.055,0.092 -0.117,0.164 -0.187,0.217c-0.069,0.053 -0.14,0.093 -0.211,0.121c-0.071,0.028 -0.138,0.046 -0.201,0.054c-0.063,0.007 -0.115,0.011 -0.157,0.011l-0.623,0ZM40.516,25.626l0,3.156l0.965,0c0.234,0 0.436,-0.037 0.607,-0.11c0.171,-0.074 0.311,-0.181 0.422,-0.321c0.11,-0.14 0.191,-0.312 0.244,-0.517c0.052,-0.205 0.079,-0.44 0.079,-0.705c0,-0.507 -0.117,-0.884 -0.351,-1.132c-0.234,-0.248 -0.567,-0.371 -1.001,-0.371l-0.965,0Z" style="fill:#fff;fill-rule:nonzero;"/><path d="M46.141,27.204c0,-0.159 0.019,-0.316 0.055,-0.471c0.037,-0.155 0.095,-0.294 0.174,-0.418c0.079,-0.123 0.18,-0.223 0.303,-0.298c0.124,-0.075 0.271,-0.113 0.442,-0.113c0.17,0 0.317,0.038 0.441,0.113c0.123,0.075 0.224,0.175 0.303,0.298c0.079,0.124 0.137,0.263 0.174,0.418c0.036,0.155 0.055,0.312 0.055,0.471c0,0.159 -0.019,0.316 -0.055,0.471c-0.037,0.155 -0.095,0.294 -0.174,0.418c-0.079,0.123 -0.18,0.223 -0.303,0.298c-0.124,0.075 -0.271,0.113 -0.441,0.113c-0.171,0 -0.318,-0.038 -0.442,-0.113c-0.123,-0.075 -0.224,-0.175 -0.303,-0.298c-0.079,-0.124 -0.137,-0.263 -0.174,-0.418c-0.036,-0.155 -0.055,-0.312 -0.055,-0.471ZM45.767,27.204c0,0.215 0.028,0.422 0.085,0.621c0.056,0.199 0.141,0.375 0.254,0.528c0.113,0.154 0.253,0.275 0.421,0.365c0.169,0.09 0.364,0.135 0.588,0.135c0.223,0 0.419,-0.045 0.587,-0.135c0.168,-0.09 0.308,-0.211 0.421,-0.365c0.113,-0.153 0.198,-0.329 0.254,-0.528c0.057,-0.199 0.085,-0.406 0.085,-0.621c0,-0.215 -0.028,-0.422 -0.085,-0.621c-0.056,-0.199 -0.141,-0.375 -0.254,-0.529c-0.113,-0.153 -0.253,-0.275 -0.421,-0.366c-0.168,-0.092 -0.364,-0.138 -0.587,-0.138c-0.224,0 -0.419,0.046 -0.588,0.138c-0.168,0.091 -0.308,0.213 -0.421,0.366c-0.113,0.154 -0.198,0.33 -0.254,0.529c-0.057,0.199 -0.085,0.406 -0.085,0.621Z" style="fill:#fff;fill-rule:nonzero;"/><path d="M48.919,25.626l0,3.156l0.375,0l0,-1.445l1.292,0l0,-0.354l-1.292,0l0,-1.004l1.473,0l0,-0.353l-1.848,0Z" style="fill:#fff;fill-rule:nonzero;"/><path d="M53.816,25.626l0,3.156l1.863,0l0,-0.353l-1.489,0l0,-2.803l-0.374,0Z" style="fill:#fff;fill-rule:nonzero;"/><path d="M56.006,25.626l0,3.156l1.955,0l0,-0.353l-1.58,0l0,-1.092l1.462,0l0,-0.354l-1.462,0l0,-1.004l1.568,0l0,-0.353l-1.943,0Z" style="fill:#fff;fill-rule:nonzero;"/><path d="M60.518,28.389l0.099,0.393l0.236,0l0,-1.662l-1.233,0l0,0.354l0.898,0c0.005,0.144 -0.012,0.279 -0.051,0.404c-0.04,0.125 -0.098,0.234 -0.176,0.327c-0.077,0.093 -0.172,0.166 -0.285,0.219c-0.113,0.053 -0.243,0.08 -0.39,0.08c-0.158,0 -0.296,-0.035 -0.416,-0.104c-0.12,-0.069 -0.22,-0.162 -0.301,-0.279c-0.082,-0.116 -0.144,-0.25 -0.186,-0.402c-0.042,-0.152 -0.063,-0.31 -0.063,-0.475c0,-0.168 0.019,-0.333 0.055,-0.493c0.037,-0.161 0.094,-0.304 0.172,-0.429c0.077,-0.125 0.177,-0.226 0.299,-0.303c0.122,-0.077 0.269,-0.115 0.44,-0.115c0.105,0 0.204,0.014 0.297,0.042c0.093,0.028 0.177,0.07 0.25,0.126c0.074,0.056 0.136,0.128 0.186,0.215c0.049,0.087 0.084,0.19 0.102,0.311l0.374,0c-0.026,-0.185 -0.075,-0.344 -0.147,-0.475c-0.073,-0.131 -0.162,-0.239 -0.268,-0.325c-0.107,-0.085 -0.228,-0.148 -0.363,-0.188c-0.135,-0.04 -0.279,-0.06 -0.431,-0.06c-0.224,0 -0.419,0.047 -0.585,0.14c-0.167,0.093 -0.306,0.217 -0.418,0.373c-0.112,0.157 -0.196,0.339 -0.252,0.546c-0.057,0.208 -0.085,0.427 -0.085,0.657c0,0.206 0.03,0.405 0.091,0.597c0.06,0.191 0.148,0.361 0.264,0.508c0.115,0.147 0.256,0.265 0.421,0.352c0.166,0.087 0.354,0.13 0.564,0.13c0.165,0 0.329,-0.036 0.492,-0.108c0.163,-0.073 0.3,-0.191 0.41,-0.356Z" style="fill:#fff;fill-rule:nonzero;"/><path d="M61.889,27.478l0.477,-1.472l0.008,0l0.469,1.472l-0.954,0ZM62.169,25.626l-1.095,3.156l0.382,0l0.315,-0.95l1.19,0l0.307,0.95l0.414,0l-1.099,-3.156l-0.414,0Z" style="fill:#fff;fill-rule:nonzero;"/><path d="M63.958,25.626l0,3.156l1.864,0l0,-0.353l-1.49,0l0,-2.803l-0.374,0Z" style="fill:#fff;fill-rule:nonzero;"/><path d="M70.411,26.55l0.354,0c-0.005,-0.174 -0.034,-0.324 -0.088,-0.449c-0.054,-0.125 -0.128,-0.229 -0.221,-0.312c-0.093,-0.082 -0.202,-0.143 -0.325,-0.181c-0.124,-0.038 -0.258,-0.058 -0.402,-0.058c-0.129,0 -0.254,0.019 -0.376,0.056c-0.122,0.037 -0.231,0.093 -0.327,0.168c-0.096,0.075 -0.173,0.171 -0.231,0.287c-0.058,0.117 -0.086,0.254 -0.086,0.413c0,0.145 0.025,0.265 0.076,0.361c0.052,0.096 0.12,0.174 0.205,0.234c0.086,0.061 0.182,0.109 0.29,0.146c0.108,0.037 0.217,0.069 0.329,0.097c0.111,0.028 0.221,0.056 0.329,0.082c0.108,0.027 0.204,0.061 0.289,0.104c0.086,0.043 0.154,0.098 0.205,0.166c0.052,0.068 0.077,0.156 0.077,0.265c0,0.115 -0.021,0.209 -0.063,0.283c-0.042,0.074 -0.097,0.132 -0.165,0.175c-0.069,0.042 -0.145,0.073 -0.231,0.09c-0.085,0.018 -0.17,0.027 -0.254,0.027c-0.105,0 -0.208,-0.015 -0.307,-0.044c-0.1,-0.03 -0.187,-0.076 -0.262,-0.138c-0.075,-0.061 -0.136,-0.14 -0.182,-0.236c-0.046,-0.096 -0.069,-0.21 -0.069,-0.343l-0.354,0c0,0.192 0.031,0.358 0.092,0.498c0.062,0.14 0.146,0.255 0.253,0.345c0.106,0.089 0.229,0.156 0.37,0.201c0.141,0.044 0.29,0.066 0.447,0.066c0.129,0 0.258,-0.017 0.388,-0.051c0.13,-0.034 0.248,-0.088 0.353,-0.163c0.105,-0.076 0.191,-0.173 0.258,-0.292c0.067,-0.12 0.101,-0.263 0.101,-0.431c0,-0.156 -0.026,-0.286 -0.077,-0.389c-0.052,-0.103 -0.12,-0.189 -0.205,-0.257c-0.086,-0.068 -0.182,-0.121 -0.29,-0.161c-0.108,-0.04 -0.217,-0.075 -0.329,-0.104c-0.111,-0.029 -0.221,-0.057 -0.329,-0.082c-0.108,-0.025 -0.204,-0.057 -0.289,-0.095c-0.086,-0.038 -0.154,-0.088 -0.205,-0.148c-0.052,-0.06 -0.077,-0.139 -0.077,-0.236c0,-0.104 0.018,-0.19 0.053,-0.259c0.035,-0.069 0.083,-0.125 0.142,-0.166c0.059,-0.041 0.127,-0.071 0.203,-0.088c0.076,-0.018 0.153,-0.027 0.232,-0.027c0.195,0 0.354,0.051 0.479,0.153c0.125,0.101 0.198,0.266 0.219,0.493Z" style="fill:#fff;fill-rule:nonzero;"/><path d="M71.711,27.138l0,-1.159l0.733,0c0.213,0 0.368,0.05 0.467,0.148c0.098,0.099 0.148,0.243 0.148,0.431c0,0.189 -0.05,0.334 -0.148,0.434c-0.099,0.1 -0.254,0.149 -0.467,0.146l-0.733,0ZM71.337,25.626l0,3.156l0.374,0l0,-1.291l0.859,0c0.284,0.003 0.498,-0.078 0.644,-0.243c0.146,-0.165 0.219,-0.395 0.219,-0.69c0,-0.294 -0.073,-0.523 -0.219,-0.687c-0.146,-0.164 -0.36,-0.245 -0.644,-0.245l-1.233,0Z" style="fill:#fff;fill-rule:nonzero;"/><path d="M73.89,25.626l0,3.156l1.954,0l0,-0.353l-1.58,0l0,-1.092l1.462,0l0,-0.354l-1.462,0l0,-1.004l1.568,0l0,-0.353l-1.942,0Z" style="fill:#fff;fill-rule:nonzero;"/><path d="M78.275,26.576l0.375,0c-0.021,-0.168 -0.066,-0.316 -0.134,-0.444c-0.069,-0.128 -0.154,-0.235 -0.256,-0.321c-0.103,-0.085 -0.22,-0.15 -0.351,-0.194c-0.131,-0.044 -0.271,-0.067 -0.418,-0.067c-0.215,0 -0.406,0.044 -0.573,0.131c-0.167,0.087 -0.306,0.205 -0.418,0.356c-0.111,0.15 -0.196,0.326 -0.254,0.528c-0.058,0.202 -0.087,0.418 -0.087,0.648c0,0.23 0.027,0.445 0.081,0.645c0.054,0.201 0.135,0.375 0.243,0.522c0.107,0.147 0.243,0.263 0.405,0.347c0.163,0.084 0.354,0.126 0.572,0.126c0.36,0 0.643,-0.111 0.851,-0.332c0.207,-0.221 0.33,-0.53 0.366,-0.928l-0.374,0c-0.008,0.13 -0.032,0.251 -0.071,0.363c-0.039,0.112 -0.094,0.208 -0.163,0.289c-0.07,0.081 -0.153,0.145 -0.249,0.19c-0.096,0.046 -0.205,0.069 -0.329,0.069c-0.168,0 -0.312,-0.036 -0.433,-0.106c-0.121,-0.071 -0.22,-0.166 -0.298,-0.286c-0.077,-0.119 -0.134,-0.259 -0.171,-0.42c-0.037,-0.16 -0.055,-0.33 -0.055,-0.51c0,-0.165 0.018,-0.324 0.055,-0.478c0.037,-0.153 0.094,-0.289 0.171,-0.409c0.078,-0.119 0.176,-0.214 0.296,-0.285c0.119,-0.07 0.263,-0.106 0.431,-0.106c0.197,0 0.367,0.056 0.511,0.168c0.143,0.112 0.235,0.28 0.277,0.504Z" style="fill:#fff;fill-rule:nonzero;"/><rect x="79.158" y="25.626" width="0.374" height="3.157" style="fill:#fff;fill-rule:nonzero;"/><path d="M80.647,27.478l0.477,-1.472l0.008,0l0.469,1.472l-0.954,0ZM80.927,25.626l-1.095,3.156l0.382,0l0.315,-0.95l1.19,0l0.308,0.95l0.413,0l-1.099,-3.156l-0.414,0Z" style="fill:#fff;fill-rule:nonzero;"/><path d="M82.716,25.626l0,3.156l1.864,0l0,-0.353l-1.49,0l0,-2.803l-0.374,0Z" style="fill:#fff;fill-rule:nonzero;"/><rect x="84.923" y="25.626" width="0.374" height="3.157" style="fill:#fff;fill-rule:nonzero;"/><path d="M85.707,28.429l0,0.353l2.238,0l0,-0.353l-1.793,0l1.745,-2.45l0,-0.353l-2.056,0l0,0.353l1.615,0l-1.749,2.45Z" style="fill:#fff;fill-rule:nonzero;"/><path d="M88.819,27.478l0.477,-1.472l0.008,0l0.469,1.472l-0.954,0ZM89.099,25.626l-1.095,3.156l0.382,0l0.315,-0.95l1.19,0l0.308,0.95l0.413,0l-1.099,-3.156l-0.414,0Z" style="fill:#fff;fill-rule:nonzero;"/><path d="M91.164,25.979l0,2.803l0.374,0l0,-2.803l0.938,0l0,-0.353l-2.25,0l0,0.353l0.938,0Z" style="fill:#fff;fill-rule:nonzero;"/><rect x="92.803" y="25.626" width="0.374" height="3.157" style="fill:#fff;fill-rule:nonzero;"/><path d="M94.025,27.204c0,-0.159 0.018,-0.316 0.055,-0.471c0.036,-0.155 0.094,-0.294 0.173,-0.418c0.079,-0.123 0.18,-0.223 0.303,-0.298c0.124,-0.075 0.271,-0.113 0.442,-0.113c0.171,0 0.318,0.038 0.441,0.113c0.124,0.075 0.225,0.175 0.303,0.298c0.079,0.124 0.137,0.263 0.174,0.418c0.037,0.155 0.055,0.312 0.055,0.471c0,0.159 -0.018,0.316 -0.055,0.471c-0.037,0.155 -0.095,0.294 -0.174,0.418c-0.078,0.123 -0.179,0.223 -0.303,0.298c-0.123,0.075 -0.27,0.113 -0.441,0.113c-0.171,0 -0.318,-0.038 -0.442,-0.113c-0.123,-0.075 -0.224,-0.175 -0.303,-0.298c-0.079,-0.124 -0.137,-0.263 -0.173,-0.418c-0.037,-0.155 -0.055,-0.312 -0.055,-0.471ZM93.65,27.204c0,0.215 0.028,0.422 0.085,0.621c0.056,0.199 0.141,0.375 0.254,0.528c0.113,0.154 0.254,0.275 0.422,0.365c0.168,0.09 0.364,0.135 0.587,0.135c0.223,0 0.419,-0.045 0.587,-0.135c0.168,-0.09 0.309,-0.211 0.421,-0.365c0.113,-0.153 0.198,-0.329 0.255,-0.528c0.056,-0.199 0.084,-0.406 0.084,-0.621c0,-0.215 -0.028,-0.422 -0.084,-0.621c-0.057,-0.199 -0.142,-0.375 -0.255,-0.529c-0.112,-0.153 -0.253,-0.275 -0.421,-0.366c-0.168,-0.092 -0.364,-0.138 -0.587,-0.138c-0.223,0 -0.419,0.046 -0.587,0.138c-0.168,0.091 -0.309,0.213 -0.422,0.366c-0.113,0.154 -0.198,0.33 -0.254,0.529c-0.057,0.199 -0.085,0.406 -0.085,0.621Z" style="fill:#fff;fill-rule:nonzero;"/><path d="M96.798,25.626l0,3.156l0.355,0l0,-2.533l0.008,0l1.47,2.533l0.409,0l0,-3.156l-0.354,0l0,2.559l-0.008,0l-1.482,-2.559l-0.398,0Z" style="fill:#fff;fill-rule:nonzero;"/></g><clipPath id="_clip1"><rect x="0" y="19.224" width="10" height="5.038"/></clipPath><g clip-path="url(#_clip1)"><path d="M10,22.152c0,-1.617 -1.311,-2.928 -2.928,-2.928c-2.951,0 -7.072,0 -7.072,0l0,10.077c0,0 3.63,0 6.516,0c1.924,0 3.484,-1.56 3.484,-3.484c0,-0.001 0,-0.001 0,-0.001l-0.042,-0.187l-0.466,-0.653l-0.671,-0.377l-1.379,-0.337c2.725,-0.677 2.377,-1.15 2.558,-2.109c0,0 0,0 0,-0.001Z" style="fill:#fff;"/></g><rect x="2.893" y="22.264" width="1.077" height="1.115" style="fill:#000;"/><circle cx="3.97" cy="23.339" r="0.692" style="fill:#fff;"/><rect x="1.739" y="22.571" width="1.538" height="1.691" style="fill:#000;"/><path d="M7.585,20.956c0,0 -2.429,0 -4.156,0c-0.933,0 -1.69,0.757 -1.69,1.69c0,0.001 0,0.001 0,0.001l5.846,0l0,-1.691Z" style="fill:#000;"/><clipPath id="_clip2"><rect x="0" y="24.262" width="10" height="5.038"/></clipPath><g clip-path="url(#_clip2)"><path d="M10,26.373c0,1.617 -1.311,2.928 -2.928,2.928c-2.951,0 -7.072,0 -7.072,0l0,-10.077c0,0 3.63,0 6.516,0c1.924,0 3.484,1.56 3.484,3.484c0,0.001 0,0.001 0,0.001l-0.042,0.187l-0.466,0.653l-0.671,0.377l-1.379,0.336c2.725,0.677 2.377,1.151 2.558,2.11c0,0 0,0 0,0.001Z" style="fill:#fff;"/></g><rect x="2.893" y="25.146" width="1.077" height="1.115" style="fill:#000;"/><circle cx="3.97" cy="25.185" r="0.692" style="fill:#fff;"/><rect x="1.739" y="24.262" width="1.538" height="1.691" style="fill:#000;"/><path d="M7.585,27.569c0,0 -2.429,0 -4.156,0c-0.933,0 -1.69,-0.757 -1.69,-1.69c0,-0.001 0,-0.001 0,-0.001l5.846,0l0,1.691Z" style="fill:#000;"/></svg>